<svg xmlns="http://www.w3.org/2000/svg" width="512" height="512" viewBox="0 0 512 512">
  <defs>
    <linearGradient id="g" x1="0" y1="0" x2="1" y2="1">
      <stop offset="0" stop-color="#d946ef"/>
      <stop offset="0.5" stop-color="#38bdf8"/>
      <stop offset="1" stop-color="#34d399"/>
    </linearGradient>
    <filter id="glow" x="-30%" y="-30%" width="160%" height="160%">
      <feGaussianBlur stdDeviation="10" result="blur"/>
      <feColorMatrix in="blur" type="matrix" values="1 0 0 0 0  0 1 0 0 0  0 0 1 0 0  0 0 0 0.7 0" result="glow"/>
      <feMerge>
        <feMergeNode in="glow"/>
        <feMergeNode in="SourceGraphic"/>
      </feMerge>
    </filter>
  </defs>
  <rect x="56" y="56" width="400" height="400" rx="120" fill="#05070c"/>
  <rect x="56" y="56" width="400" height="400" rx="120" fill="url(#g)" opacity="0.18"/>
  <path d="M178 155h84c56 0 92 28 92 70 0 28-14 49-38 60 32 10 50 34 50 66 0 50-40 82-104 82H178V155zm78 108c22 0 36-12 36-30 0-17-14-28-36-28h-22v58h22zm18 120c26 0 42-13 42-34 0-20-16-33-42-33h-40v67h40z" fill="url(#g)" filter="url(#glow)"/>
  <path d="M354 156h52l-70 118v85h-52v-85l-70-118h56l40 72 44-72z" fill="#e2e8f0" opacity="0.92"/>
</svg>
